<svg width="36" height="31" viewBox="0 0 36 31" xmlns="http://www.w3.org/2000/svg"><title></title><path d="M14.109 21.214a6.08 6.08 0 0 1-.265 1.74 4.175 4.175 0 0 1-.912 1.61c-.431.481-.944.722-1.537.722-.594 0-1.107-.24-1.538-.721a4.175 4.175 0 0 1-.912-1.612 6.08 6.08 0 0 1-.265-1.739c0-.565.089-1.145.265-1.739.177-.593.481-1.13.912-1.611.431-.48.944-.721 1.538-.721.593 0 1.106.24 1.537.72a4.19 4.19 0 0 1 .912 1.612 6.08 6.08 0 0 1 .265 1.74zm13.571 0a6.08 6.08 0 0 1-.265 1.74 4.175 4.175 0 0 1-.912 1.61c-.43.481-.943.722-1.537.722s-1.106-.24-1.537-.721a4.175 4.175 0 0 1-.912-1.612 6.08 6.08 0 0 1-.265-1.739c0-.565.088-1.145.265-1.739.177-.593.48-1.13.912-1.611.43-.48.943-.721 1.537-.721s1.106.24 1.537.72c.432.481.736 1.019.912 1.612a6.08 6.08 0 0 1 .265 1.74zm3.393 0c0-1.696-.487-3.138-1.463-4.326-.975-1.187-2.297-1.78-3.965-1.78-.58 0-1.958.148-4.135.444a21.834 21.834 0 0 1-3.33.234c-1.215 0-2.325-.078-3.329-.234-2.149-.296-3.527-.445-4.135-.445-1.668 0-2.99.594-3.965 1.781-.976 1.188-1.463 2.63-1.463 4.326 0 1.244.226 2.33.678 3.255.452.926 1.025 1.654 1.718 2.184.692.53 1.555.955 2.587 1.273 1.032.318 2.021.526 2.969.625.947.1 2 .149 3.16.149h3.562a30.6 30.6 0 0 0 3.16-.149 15.602 15.602 0 0 0 2.968-.625c1.032-.318 1.894-.742 2.587-1.273.693-.53 1.265-1.258 1.718-2.184.452-.926.678-2.01.678-3.255zm4.75-3.732c0 2.926-.43 5.266-1.293 7.02a8.545 8.545 0 0 1-2.237 2.82c-.955.791-1.951 1.399-2.99 1.823-1.04.424-2.241.76-3.605 1.007-1.365.248-2.577.403-3.637.467a60.09 60.09 0 0 1-3.541.095 63.97 63.97 0 0 1-3.011-.063 47.894 47.894 0 0 1-3.128-.265 18.851 18.851 0 0 1-3.234-.637 22.335 22.335 0 0 1-2.905-1.092 9.378 9.378 0 0 1-2.566-1.717 8.812 8.812 0 0 1-1.824-2.44C.976 22.762.538 20.423.538 17.482c0-3.35.96-6.15 2.883-8.397A11.452 11.452 0 0 1 2.85 5.48c0-1.64.36-3.18 1.081-4.623 1.527 0 2.87.28 4.03.838 1.159.558 2.495 1.431 4.007 2.619 2.078-.495 4.262-.743 6.553-.743 2.092 0 4.071.227 5.937.679 1.485-1.16 2.806-2.015 3.966-2.566 1.159-.551 2.495-.827 4.007-.827a10.196 10.196 0 0 1 1.082 4.623c0 1.23-.191 2.417-.573 3.562 1.923 2.262 2.884 5.076 2.884 8.44z" fill="#F3FDFF" fill-rule="evenodd"/></svg>