<svg width="34" height="32" viewBox="0 0 34 32" xmlns="http://www.w3.org/2000/svg"><title></title><path d="M8.295 10.682v21.014H1.298V10.682h6.997zm.446-6.489c.014 1.032-.343 1.894-1.071 2.587-.728.693-1.686 1.04-2.874 1.04h-.042c-1.16 0-2.092-.347-2.8-1.04-.706-.693-1.06-1.555-1.06-2.587 0-1.046.365-1.912 1.093-2.598C2.715.91 3.666.567 4.839.567c1.173 0 2.113.343 2.82 1.028.707.686 1.068 1.552 1.082 2.598zm10.39 9.475c.27-.424.545-.798.827-1.12.297-.34.697-.707 1.198-1.103.502-.396 1.117-.703 1.845-.922.728-.22 1.538-.329 2.428-.329 2.418 0 4.362.802 5.832 2.407 1.47 1.605 2.205 3.955 2.205 7.05v12.045H26.49V20.458c0-1.485-.287-2.648-.86-3.489-.572-.84-1.466-1.261-2.682-1.261-.89 0-1.636.243-2.237.731a4.51 4.51 0 0 0-1.346 1.813c-.156.424-.234.997-.234 1.718v11.726h-6.976c.028-5.64.042-10.213.042-13.72 0-3.505-.007-5.598-.021-6.276l-.021-1.018h6.976v2.986z" fill="#F3FDFF" fill-rule="evenodd"/></svg>