<?xml version="1.0" encoding="UTF-8"?>
<svg width="36px" height="31px" viewBox="0 0 36 31" version="1.1" xmlns="http://www.w3.org/2000/svg" xmlns:xlink="http://www.w3.org/1999/xlink">
    <!-- Generator: Sketch 49 (51002) - http://www.bohemiancoding.com/sketch -->
    <title></title>
    <desc>Created with Sketch.</desc>
    <defs></defs>
    <g id="Page-1" stroke="none" stroke-width="1" fill="none" fill-rule="evenodd">
        <g id="Desktop-HD" transform="translate(-1387.000000, -130.000000)" fill="#F3FDFF">
            <g id="socials" transform="translate(1370.000000, 29.000000)">
                <path d="M31.1089633,122.214286 C31.1089633,122.779765 31.0206086,123.359372 30.8438964,123.953125 C30.6671842,124.546878 30.3632438,125.084075 29.932066,125.564732 C29.5008883,126.045389 28.9884306,126.285714 28.3946776,126.285714 C27.8009247,126.285714 27.288467,126.045389 26.8572892,125.564732 C26.4261115,125.084075 26.1221711,124.546878 25.9454589,123.953125 C25.7687467,123.359372 25.6803919,122.779765 25.6803919,122.214286 C25.6803919,121.648807 25.7687467,121.069199 25.9454589,120.475446 C26.1221711,119.881693 26.4261115,119.344496 26.8572892,118.863839 C27.288467,118.383182 27.8009247,118.142857 28.3946776,118.142857 C28.9884306,118.142857 29.5008883,118.383182 29.932066,118.863839 C30.3632438,119.344496 30.6671842,119.881693 30.8438964,120.475446 C31.0206086,121.069199 31.1089633,121.648807 31.1089633,122.214286 Z M44.6803919,122.214286 C44.6803919,122.779765 44.5920371,123.359372 44.4153249,123.953125 C44.2386128,124.546878 43.9346723,125.084075 43.5034946,125.564732 C43.0723168,126.045389 42.5598592,126.285714 41.9661062,126.285714 C41.3723532,126.285714 40.8598956,126.045389 40.4287178,125.564732 C39.99754,125.084075 39.6935996,124.546878 39.5168874,123.953125 C39.3401753,123.359372 39.2518205,122.779765 39.2518205,122.214286 C39.2518205,121.648807 39.3401753,121.069199 39.5168874,120.475446 C39.6935996,119.881693 39.99754,119.344496 40.4287178,118.863839 C40.8598956,118.383182 41.3723532,118.142857 41.9661062,118.142857 C42.5598592,118.142857 43.0723168,118.383182 43.5034946,118.863839 C43.9346723,119.344496 44.2386128,119.881693 44.4153249,120.475446 C44.5920371,121.069199 44.6803919,121.648807 44.6803919,122.214286 Z M48.0732491,122.214286 C48.0732491,120.517849 47.5855307,119.075899 46.6100794,117.888393 C45.6346281,116.700887 44.3128407,116.107143 42.6446776,116.107143 C42.0650616,116.107143 40.6867272,116.255579 38.509633,116.552455 C37.5059077,116.707962 36.3961718,116.785714 35.1803919,116.785714 C33.964612,116.785714 32.8548761,116.707962 31.8511508,116.552455 C29.7023306,116.255579 28.3239961,116.107143 27.7161062,116.107143 C26.0479431,116.107143 24.7261557,116.700887 23.7507044,117.888393 C22.7752531,119.075899 22.2875348,120.517849 22.2875348,122.214286 C22.2875348,123.45834 22.513723,124.543336 22.9661062,125.469308 C23.4184894,126.39528 23.9910283,127.123323 24.6837401,127.65346 C25.3764519,128.183596 26.2387945,128.607699 27.2707937,128.925781 C28.3027929,129.243863 29.2923663,129.45238 30.2395437,129.551339 C31.186721,129.650298 32.2399099,129.699777 33.3991419,129.699777 L36.9616419,129.699777 C38.1208739,129.699777 39.1740628,129.650298 40.1212401,129.551339 C41.0684175,129.45238 42.0579909,129.243863 43.0899901,128.925781 C44.1219893,128.607699 44.9843319,128.183596 45.6770437,127.65346 C46.3697555,127.123323 46.9422944,126.39528 47.3946776,125.469308 C47.8470608,124.543336 48.0732491,123.45834 48.0732491,122.214286 Z M52.8232491,118.482143 C52.8232491,121.408497 52.3920778,123.748131 51.5297223,125.501116 C50.9925172,126.589663 50.2468029,127.529758 49.2925571,128.321429 C48.3383112,129.113099 47.3416694,129.72098 46.3026017,130.145089 C45.263534,130.569199 44.0619091,130.904947 42.697691,131.152344 C41.3334729,131.399741 40.1212454,131.555245 39.0609723,131.618862 C38.0006991,131.682478 36.8202794,131.714286 35.5196776,131.714286 C34.4169935,131.714286 33.4132833,131.693081 32.5085169,131.65067 C31.6037505,131.608259 30.5611642,131.519904 29.3807267,131.385603 C28.2002893,131.251301 27.1223611,131.03925 26.1469098,130.749442 C25.1714585,130.459634 24.2030902,130.095612 23.2417758,129.657366 C22.2804615,129.21912 21.4251873,128.646581 20.6759276,127.939732 C19.9266679,127.232883 19.3187871,126.420019 18.8522669,125.501116 C17.9757744,123.762268 17.5375348,121.422634 17.5375348,118.482143 C17.5375348,115.13168 18.4988347,112.332601 20.4214633,110.084821 C20.039765,108.925589 19.8489187,107.723965 19.8489187,106.479911 C19.8489187,104.840022 20.2094062,103.299114 20.9303919,101.857143 C22.4571853,101.857143 23.8001778,102.136344 24.9594098,102.694754 C26.1186418,103.253165 27.4545659,104.12611 28.9672223,105.313616 C31.0453577,104.818822 33.2294876,104.571429 35.5196776,104.571429 C37.61195,104.571429 39.5910969,104.797617 41.4571776,105.25 C42.94156,104.090768 44.2633474,103.235494 45.4225794,102.684152 C46.5818114,102.13281 47.9177355,101.857143 49.4303919,101.857143 C50.1513777,103.299114 50.5118651,104.840022 50.5118651,106.479911 C50.5118651,107.709828 50.3210188,108.897316 49.9393205,110.042411 C51.8619491,112.304327 52.8232491,115.117543 52.8232491,118.482143 Z" id=""></path>
            </g>
        </g>
    </g>
</svg>