<?xml version="1.0" encoding="UTF-8"?>
<svg width="34px" height="32px" viewBox="0 0 34 32" version="1.1" xmlns="http://www.w3.org/2000/svg" xmlns:xlink="http://www.w3.org/1999/xlink">
    <!-- Generator: Sketch 49 (51002) - http://www.bohemiancoding.com/sketch -->
    <title></title>
    <desc>Created with Sketch.</desc>
    <defs></defs>
    <g id="Page-1" stroke="none" stroke-width="1" fill="none" fill-rule="evenodd">
        <g id="Desktop-HD" transform="translate(-1390.000000, -45.000000)" fill="#F3FDFF">
            <g id="socials" transform="translate(1370.000000, 29.000000)">
                <path d="M28.2953472,26.6819196 L28.2953472,47.6964286 L21.2975793,47.6964286 L21.2975793,26.6819196 L28.2953472,26.6819196 Z M28.7406597,20.1930804 C28.7547967,21.2250796 28.3978434,22.0874221 27.6697892,22.7801339 C26.9417349,23.4728457 25.9839692,23.8191964 24.7964633,23.8191964 L24.7540526,23.8191964 C23.5948206,23.8191964 22.6617942,23.4728457 21.9549454,22.7801339 C21.2480966,22.0874221 20.8946776,21.2250796 20.8946776,20.1930804 C20.8946776,19.1469442 21.2586992,18.2810674 21.9867535,17.5954241 C22.7148077,16.9097808 23.665505,16.5669643 24.838874,16.5669643 C26.012243,16.5669643 26.9523377,16.9097808 27.6591865,17.5954241 C28.3660353,18.2810674 28.7265227,19.1469442 28.7406597,20.1930804 Z M39.1312847,29.6681416 C39.4005752,29.2437154 39.6762424,28.8703353 39.9582936,28.5479911 C40.2551701,28.2087037 40.6545337,27.8411478 41.1563963,27.4453125 C41.6582589,27.0494772 42.2732081,26.7420026 43.0012624,26.5228795 C43.7293166,26.3037563 44.5386463,26.1941964 45.4292758,26.1941964 C47.8466986,26.1941964 49.7905035,26.9964578 51.260749,28.6010045 C52.7309944,30.2055512 53.4661061,32.5557881 53.4661061,35.6517857 L53.4661061,47.6964286 L46.4895436,47.6964286 L46.4895436,36.4575893 C46.4895436,34.9732069 46.2032742,33.8104581 45.6307267,32.969308 C45.0581792,32.128158 44.1640289,31.7075893 42.948249,31.7075893 C42.0576195,31.7075893 41.3119053,31.9514485 40.7110838,32.4391741 C40.1102624,32.9268998 39.6614201,33.5312464 39.3645436,34.2522321 C39.2090369,34.6763414 39.1312847,35.2488803 39.1312847,35.9698661 L39.1312847,47.6964286 L32.1547222,47.6964286 C32.1829962,42.0557754 32.1971329,37.4825324 32.1971329,33.9765625 C32.1971329,30.4705926 32.1900645,28.3783516 32.1759276,27.6997768 L32.1547222,26.6819196 L39.1312847,26.6819196 L39.1312847,29.6681416 Z" id=""></path>
            </g>
        </g>
    </g>
</svg>